<?xml version="1.0" encoding="UTF-8"?>
<svg version="1.1" xmlns="http://www.w3.org/2000/svg" width="500" height="500">
<path d="M0 0 C60.204375 -0.061875 120.40875 -0.12375 182.4375 -0.1875 C201.4427124 -0.21481201 220.4479248 -0.24212402 240.02905273 -0.27026367 C263.24816895 -0.28381348 263.24816895 -0.28381348 274.12025452 -0.28633118 C281.70870258 -0.28912454 289.2970841 -0.3001111 296.88551331 -0.31672668 C305.64598809 -0.33588008 314.40639923 -0.34449445 323.1668951 -0.34033485 C327.64419169 -0.33853468 332.12134621 -0.34130401 336.59861648 -0.35764539 C340.65810464 -0.37237105 344.71735182 -0.37288907 348.77685165 -0.36270332 C350.23397176 -0.36144492 351.69110773 -0.36512868 353.14819729 -0.37464774 C385.06142192 -0.57064875 417.36419245 9.94794379 440.453125 32.4765625 C441.29359375 33.30929688 442.1340625 34.14203125 443 35 C444.01320313 35.93972656 444.01320313 35.93972656 445.046875 36.8984375 C463.06126814 53.87660449 470.90982214 81.13475487 474 105 C474.0942627 105.72590332 474.18852539 106.45180664 474.28564453 107.19970703 C478.48977452 143.77338168 474.00274538 184.42776432 452 215 C437.81279162 232.67658345 420.18807947 245.03615974 398.75 252.3125 C397.63322876 252.69450562 397.63322876 252.69450562 396.49389648 253.08422852 C391.65467737 254.662527 387.06764196 255.51272673 382 256 C385.88848064 263.33817989 390.04997241 270.40540948 394.5625 277.375 C395.79656866 279.2988408 397.02961594 281.2233371 398.26171875 283.1484375 C398.88224121 284.11749023 399.50276367 285.08654297 400.14208984 286.08496094 C406.59890922 296.21563418 413.03324848 306.37495524 418.875 316.875 C422.96644981 324.15347388 427.56695003 331.07748034 432.15307617 338.05151367 C441.32112623 352.0141463 449.989051 366.27077887 458.54711914 380.61303711 C463.42152911 388.75634877 468.49743145 396.76666593 473.59033203 404.77441406 C475.76776754 408.21215256 477.91406236 411.66909683 480.0625 415.125 C484.04267102 421.52147323 488.1165572 427.85387355 492.24633789 434.15478516 C492.67809326 434.81655762 493.10984863 435.47833008 493.5546875 436.16015625 C493.93093262 436.73386963 494.30717773 437.30758301 494.69482422 437.89868164 C495.12553223 438.5921167 495.55624023 439.28555176 496 440 C496.70237793 440.98097656 497.40475586 441.96195312 498.12841797 442.97265625 C501.01616135 448.09547217 500.49585942 453.55215507 500.390625 459.27734375 C500.38496521 460.4438295 500.37930542 461.61031525 500.37347412 462.81214905 C500.35116584 466.52102487 500.30097707 470.22891841 500.25 473.9375 C500.22992795 476.45897038 500.21167842 478.98045597 500.1953125 481.50195312 C500.1513191 487.6683013 500.08446137 493.83408045 500 500 C489.05609633 500.2552939 478.11290487 500.45052951 467.16662598 500.56993389 C462.08315596 500.62725554 457.00172812 500.70494253 451.91943359 500.82983398 C447.01091596 500.94969493 442.10435697 501.01519254 437.19448853 501.04364967 C435.3251766 501.06391687 433.45596758 501.10349976 431.5874939 501.16303062 C416.96371144 501.61026175 416.96371144 501.61026175 412.1293335 497.64602661 C410.0573196 494.84228711 408.50528366 492.13762861 407 489 C406.01972128 487.39728257 405.02744276 485.80174537 404.015625 484.21875 C403.08905426 482.6485949 402.1672658 481.07560903 401.25 479.5 C397.20864716 472.65914477 393.08071464 465.88923199 388.8125 459.1875 C385.28623087 453.64298401 381.80276605 448.08136316 378.4375 442.4375 C377.90431152 441.54357544 377.90431152 441.54357544 377.36035156 440.6315918 C376.62920234 439.40529098 375.89808307 438.17897231 375.16699219 436.95263672 C369.7509615 427.89041633 364.32017886 418.85185656 358.375 410.125 C351.62125183 400.17696734 345.54097086 389.79619739 339.3301239 379.50508118 C327.96222394 360.68149256 316.36669404 341.99468257 304.46484375 323.50390625 C298.7126773 314.54908246 293.09657381 305.59667947 287.97314453 296.26611328 C285.58564537 291.94805794 283.06873646 287.90349483 279.97357178 284.05818176 C278.23543924 281.36482888 277.41103404 279.39215179 276.43267822 276.40238953 C274.13217234 270.38958591 271.45123844 265.63280916 266 262 C254.06874065 258.55503488 240.91866112 259.72975356 228.6379652 260.07351518 C223.65368006 260.19285219 218.66914804 260.20349313 213.68365479 260.22599792 C204.25784059 260.28489596 194.83624765 260.4405716 185.412287 260.63163823 C174.67762442 260.84452138 163.94275266 260.94859917 153.20650244 261.04385149 C131.13531813 261.24208978 109.06792562 261.57595443 87 262 C87.00092179 263.20836171 87.00184359 264.41672342 87.00279331 265.66170216 C87.02443803 294.32767854 87.04093394 322.99365482 87.05106533 351.65963753 C87.05231608 355.18577074 87.0536104 358.71190393 87.05493164 362.23803711 C87.05519395 362.94004465 87.05545626 363.64205219 87.05572652 364.36533269 C87.06008116 375.74116196 87.06796758 387.1169862 87.0771528 398.49281249 C87.08649506 410.16020481 87.09198195 421.82759417 87.09408849 433.49499005 C87.09539502 440.05058772 87.09847725 446.60617395 87.10573006 453.16176796 C87.1124956 459.32662883 87.11461586 465.49147351 87.11310768 471.65633774 C87.11338377 473.92394664 87.11538573 476.19155606 87.11920547 478.45916176 C87.12415101 481.54537058 87.12299505 484.63151753 87.12025452 487.71772766 C87.12316736 488.62336199 87.1260802 489.52899631 87.12908131 490.4620741 C87.12709026 491.28664521 87.12509921 492.11121631 87.12304783 492.96077442 C87.12342755 493.67350948 87.12380727 494.38624454 87.1241985 495.12057763 C87 497 87 497 86 500 C57.62 500 29.24 500 0 500 C0 335 0 170 0 0 Z M86 76 C85.97666952 89.93379272 85.95908651 103.86758243 85.94818783 117.80139065 C85.94295832 124.2706768 85.93585944 130.73994989 85.92456055 137.20922852 C85.91373408 143.446703 85.90772368 149.68416487 85.90512276 155.92164803 C85.90326807 158.30720277 85.89964664 160.69275679 85.89426994 163.0783062 C85.88706271 166.40695591 85.88600892 169.73555279 85.88647461 173.06420898 C85.88287933 174.06114273 85.87928406 175.05807648 85.87557983 176.08522034 C85.8769545 176.98690948 85.87832916 177.88859863 85.87974548 178.81761169 C85.87882369 179.6057447 85.8779019 180.3938777 85.87695217 181.20589352 C85.80419345 183.02321568 85.80419345 183.02321568 87 184 C89.52336395 184.11016899 92.01994173 184.1549623 94.54429626 184.15821838 C95.34447805 184.16315636 96.14465984 184.16809434 96.96908957 184.17318195 C99.67331987 184.18864066 102.37752626 184.19694149 105.08178711 184.20532227 C107.01376558 184.21489739 108.94574193 184.22490725 110.87771606 184.23532104 C116.15508839 184.26249379 121.43246969 184.28345604 126.70987391 184.30332303 C132.26497792 184.32523088 137.82005494 184.35262377 143.37513733 184.37937927 C152.74983504 184.42375882 162.12454275 184.46448263 171.49926758 184.50268555 C184.56707626 184.55594645 197.63484796 184.61584406 210.70262134 184.67708123 C219.87342135 184.71979906 229.0442288 184.7608862 238.21503758 184.8016727 C240.40428536 184.81141075 242.59353298 184.82118666 244.78278041 184.83100247 C256.96299703 184.88547709 269.14318769 184.93397979 281.32347852 184.96842641 C287.18782044 184.98641649 293.05189418 185.01876912 298.91610736 185.06136638 C302.75332646 185.08761585 306.59055825 185.10559213 310.42783082 185.12197864 C312.20938863 185.13144991 313.99093212 185.1444499 315.77243412 185.16143715 C334.47442991 185.33669121 353.72658556 184.78222407 368 171 C379.42646919 159.3941916 379.29923195 142.13119139 379.31689453 126.8972168 C379.16231398 112.12332358 377.50755577 99.34686621 367.2578125 88.0859375 C356.53492149 77.63000643 341.4503354 75.6714125 327.11030579 75.75949097 C325.55262498 75.75692769 325.55262498 75.75692769 323.96347588 75.75431263 C320.51504776 75.75104198 317.06681813 75.76198127 313.6184082 75.77294922 C311.13405868 75.77351386 308.64970883 75.77319575 306.1653595 75.77206421 C300.83274641 75.7716101 295.50019406 75.77724968 290.16759682 75.78853989 C282.4577394 75.80485254 274.7479056 75.81000877 267.03803279 75.81251587 C254.52672519 75.81688396 242.01544378 75.83016894 229.50415039 75.84912109 C217.35669078 75.86750288 205.20923831 75.88164811 193.06176758 75.89013672 C191.93701819 75.89092489 191.93701819 75.89092489 190.78954659 75.89172898 C187.02753765 75.89433922 183.26552867 75.89686659 179.50351965 75.89935279 C148.33566072 75.92005769 117.16783435 75.95540855 86 76 Z " fill="#CCCCCC" transform="translate(0,0)"/>
</svg>
